<?xml version="1.0" encoding="UTF-8" standalone="no"?><!DOCTYPE svg PUBLIC "-//W3C//DTD SVG 1.1//EN" "http://www.w3.org/Graphics/SVG/1.1/DTD/svg11.dtd"><svg width="100%" height="100%" viewBox="0 0 4284 4284" version="1.1" xmlns="http://www.w3.org/2000/svg" xmlns:xlink="http://www.w3.org/1999/xlink" xml:space="preserve" xmlns:serif="http://www.serif.com/" style="fill-rule:evenodd;clip-rule:evenodd;stroke-linejoin:round;stroke-miterlimit:2;"><rect x="1317.949" y="0" width="329.487" height="658.974" style="fill:#1b2a0e;"/><rect x="988.462" y="329.487" width="329.487" height="658.974" style="fill:#1b2a0e;"/><rect x="1647.436" y="329.487" width="329.487" height="329.487" style="fill:#1b2a0e;"/><rect x="1976.923" y="329.487" width="329.487" height="329.487" style="fill:#fff;"/><rect x="2306.41" y="329.487" width="329.487" height="329.487" style="fill:#a0a0a0;"/><rect x="2635.897" y="329.487" width="329.487" height="658.974" style="fill:#1b2a0e;"/><rect x="658.974" y="658.974" width="329.487" height="658.974" style="fill:#1b2a0e;"/><rect x="1317.949" y="658.974" width="329.487" height="329.487" style="fill:#86b057;"/><rect x="1647.436" y="658.974" width="329.487" height="329.487" style="fill:#34561f;"/><rect x="1976.923" y="658.974" width="329.487" height="329.487" style="fill:#a0a0a0;"/><rect x="2306.41" y="658.974" width="329.487" height="658.974" style="fill:#1b2a0e;"/><rect x="2965.385" y="658.974" width="329.487" height="329.487" style="fill:#1b2a0e;"/><rect x="329.487" y="988.462" width="329.487" height="329.487" style="fill:#1b2a0e;"/><rect x="988.462" y="988.462" width="329.487" height="329.487" style="fill:#34561f;"/><rect x="1317.949" y="988.462" width="658.974" height="329.487" style="fill:#1b2a0e;"/><rect x="1976.923" y="988.462" width="329.487" height="329.487" style="fill:#547c2a;"/><rect x="2635.897" y="988.462" width="329.487" height="329.487" style="fill:#547c2a;"/><rect x="2965.385" y="988.462" width="329.487" height="329.487" style="fill:#86b057;"/><rect x="3294.872" y="988.462" width="329.487" height="658.974" style="fill:#1b2a0e;"/><rect x="658.974" y="1317.949" width="329.487" height="988.462" style="fill:#a0a0a0;"/><rect x="988.462" y="1317.949" width="329.487" height="658.974" style="fill:#fff;"/><rect x="1317.949" y="1317.949" width="329.487" height="329.487" style="fill:#231100;"/><rect x="1647.436" y="1317.949" width="658.974" height="329.487" style="fill:#1b2a0e;"/><rect x="2306.41" y="1317.949" width="329.487" height="329.487" style="fill:#34561f;"/><rect x="2635.897" y="1317.949" width="658.974" height="329.487" style="fill:#1b2a0e;"/><rect x="3624.359" y="1317.949" width="329.487" height="329.487" style="fill:#1b2a0e;"/><rect x="1317.949" y="1647.436" width="329.487" height="329.487" style="fill:#381801;"/><rect x="1647.436" y="1647.436" width="329.487" height="329.487" style="fill:#231100;"/><rect x="1976.923" y="1647.436" width="329.487" height="329.487" style="fill:#1e3914;"/><rect x="2306.41" y="1647.436" width="329.487" height="658.974" style="fill:#231100;"/><rect x="2635.897" y="1647.436" width="329.487" height="329.487" style="fill:#381801;"/><rect x="2965.385" y="1647.436" width="329.487" height="329.487" style="fill:#c0c0c0;"/><rect x="3294.872" y="1647.436" width="329.487" height="988.462" style="fill:#a0a0a0;"/><rect x="988.462" y="1976.923" width="329.487" height="329.487" style="fill:#c0c0c0;"/><rect x="1317.949" y="1976.923" width="329.487" height="329.487" style="fill:#fff;"/><rect x="1647.436" y="1976.923" width="329.487" height="329.487" style="fill:#381801;"/><rect x="1976.923" y="1976.923" width="329.487" height="329.487" style="fill:#1b2a0e;"/><rect x="2635.897" y="1976.923" width="329.487" height="329.487" style="fill:#c0c0c0;"/><rect x="2965.385" y="1976.923" width="329.487" height="329.487" style="fill:#fff;"/><rect x="988.462" y="2306.41" width="329.487" height="1647.436" style="fill:#6d0000;"/><rect x="1317.949" y="2306.41" width="329.487" height="1317.949" style="fill:#7f0000;"/><rect x="1647.436" y="2306.41" width="1317.949" height="329.487" style="fill:#fff;"/><rect x="2965.385" y="2306.41" width="329.487" height="329.487" style="fill:#a0a0a0;"/><rect x="1647.436" y="2635.897" width="1317.949" height="329.487" style="fill:#f00;"/><rect x="2965.385" y="2635.897" width="329.487" height="1317.949" style="fill:#6d0000;"/><rect x="1647.436" y="2965.385" width="329.487" height="988.462" style="fill:#7f0000;"/><rect x="1976.923" y="2965.385" width="988.462" height="329.487" style="fill:#f00;"/><rect x="1976.923" y="3294.872" width="329.487" height="658.974" style="fill:#7f0000;"/><rect x="2306.41" y="3294.872" width="658.974" height="329.487" style="fill:#f00;"/><rect x="1317.949" y="3624.359" width="329.487" height="658.974" style="fill:#6d0000;"/><rect x="2306.41" y="3624.359" width="329.487" height="329.487" style="fill:#7f0000;"/><rect x="2635.897" y="3624.359" width="329.487" height="658.974" style="fill:#6d0000;"/><rect x="1647.436" y="3953.846" width="988.462" height="329.487" style="fill:#6d0000;"/></svg>